<svg width="47" height="67" viewBox="0 0 47 67" fill="none" xmlns="http://www.w3.org/2000/svg">
<path d="M23.3333 0C29.5217 0 35.4566 2.45833 39.8325 6.83417C44.2083 11.21 46.6667 17.1449 46.6667 23.3333C46.6667 31.2667 42.7 38.2333 36.6667 42.4667V50C36.6667 50.8841 36.3155 51.7319 35.6904 52.357C35.0652 52.9821 34.2174 53.3333 33.3333 53.3333H13.3333C12.4493 53.3333 11.6014 52.9821 10.9763 52.357C10.3512 51.7319 10 50.8841 10 50V42.4667C3.96667 38.2333 0 31.2667 0 23.3333C0 17.1449 2.45833 11.21 6.83417 6.83417C11.21 2.45833 17.1449 0 23.3333 0ZM13.3333 63.3333V60H33.3333V63.3333C33.3333 64.2174 32.9821 65.0652 32.357 65.6904C31.7319 66.3155 30.8841 66.6667 30 66.6667H16.6667C15.7826 66.6667 14.9348 66.3155 14.3096 65.6904C13.6845 65.0652 13.3333 64.2174 13.3333 63.3333ZM23.3333 6.66667C18.9131 6.66667 14.6738 8.42261 11.5482 11.5482C8.42261 14.6738 6.66667 18.9131 6.66667 23.3333C6.66667 30.1667 10.7667 36.0333 16.6667 38.6V46.6667H30V38.6C35.9 36.0333 40 30.1667 40 23.3333C40 18.9131 38.2441 14.6738 35.1184 11.5482C31.9928 8.42261 27.7536 6.66667 23.3333 6.66667Z" fill="white"/>
</svg>
