<svg width="49" height="47" viewBox="0 0 49 47" fill="none" xmlns="http://www.w3.org/2000/svg">
<g clip-path="url(#clip0_146_50)">
<path d="M34.8833 41.0483V37.1562C34.8833 35.0918 34.0335 33.1118 32.5207 31.652C31.0079 30.1922 28.9562 29.3721 26.8168 29.3721H10.6837C8.54435 29.3721 6.49259 30.1922 4.97982 31.652C3.46705 33.1118 2.61719 35.0918 2.61719 37.1562V41.0483M46.9831 41.0483V37.1562C46.9818 35.4315 46.3869 33.7561 45.2919 32.3929C44.1969 31.0298 42.6638 30.0562 40.9332 29.6251M32.8667 6.27252C34.6018 6.70123 36.1398 7.67503 37.238 9.0404C38.3363 10.4058 38.9324 12.085 38.9324 13.8134C38.9324 15.5419 38.3363 17.2211 37.238 18.5865C36.1398 19.9518 34.6018 20.9256 32.8667 21.3544M26.8168 13.8037C26.8168 18.1028 23.2053 21.5879 18.7503 21.5879C14.2952 21.5879 10.6837 18.1028 10.6837 13.8037C10.6837 9.50463 14.2952 6.01953 18.7503 6.01953C23.2053 6.01953 26.8168 9.50463 26.8168 13.8037Z" stroke="white" stroke-width="4" stroke-linecap="round" stroke-linejoin="round"/>
</g>
<defs>
<clipPath id="clip0_146_50">
<rect width="48.3992" height="46.7051" fill="white" transform="translate(0.600586 0.181152)"/>
</clipPath>
</defs>
</svg>
